<?xml version="1.0" encoding="UTF-8" standalone="no"?>
<svg
   xmlns:dc="http://purl.org/dc/elements/1.1/"
   xmlns:cc="http://creativecommons.org/ns#"
   xmlns:rdf="http://www.w3.org/1999/02/22-rdf-syntax-ns#"
   xmlns:svg="http://www.w3.org/2000/svg"
   xmlns="http://www.w3.org/2000/svg"
   viewBox="0 0 151.18668 53.813332"
   height="53.813332"
   width="151.18668"
   xml:space="preserve"
   id="svg2"
   version="1.1"><metadata
     id="metadata8"><rdf:RDF><cc:Work
         rdf:about=""><dc:format>image/svg+xml</dc:format><dc:type
           rdf:resource="http://purl.org/dc/dcmitype/StillImage" /></cc:Work></rdf:RDF></metadata><defs
     id="defs6" /><g
     transform="matrix(1.3333333,0,0,-1.3333333,0,53.813333)"
     id="g10"><g
       transform="scale(0.1)"
       id="g12"><path
         id="path14"
         style="fill:#ed0c92;fill-opacity:1;fill-rule:nonzero;stroke:none"
         d="m 1087.3,310.105 c 25.44,0 46.46,21.016 46.46,47.012 0,25.449 -21.02,46.465 -46.46,46.465 -25.44,0 -46.46,-21.016 -46.46,-46.465 0,-25.996 21.02,-47.012 46.46,-47.012" /><path
         id="path16"
         style="fill:#7b1d90;fill-opacity:1;fill-rule:nonzero;stroke:none"
         d="m 994.855,143.57 h -70.199 c 0,20.196 -8.195,38.496 -21.5,51.797 -13.195,13.203 -31.496,21.406 -51.801,21.406 -20.199,0 -38.496,-8.203 -51.796,-21.406 -13.204,-13.301 -21.403,-31.601 -21.403,-51.797 h -70.297 c 0,39.602 14,73.399 42.102,101.399 27.996,28.105 61.797,42.097 101.394,42.097 39.704,0 73.5,-13.992 101.504,-42.097 28,-28 41.996,-61.797 41.996,-101.399" /><path
         id="path18"
         style="fill:#7b1d90;fill-opacity:1;fill-rule:nonzero;stroke:none"
         d="m 491.113,143.531 h 70.235 V 282.164 H 491.113 V 143.531" /><path
         id="path20"
         style="fill:#7b1d90;fill-opacity:1;fill-rule:nonzero;stroke:none"
         d="m 491.113,4.87891 h 70.235 V 143.543 H 491.113 V 4.87891" /><path
         id="path22"
         style="fill:#7b1d90;fill-opacity:1;fill-rule:nonzero;stroke:none"
         d="m 216.777,5.17188 h 70.239 V 282.457 H 216.777 V 5.17188" /><path
         id="path24"
         style="fill:#7b1d90;fill-opacity:1;fill-rule:nonzero;stroke:none"
         d="m 1125.33,60.3398 h -76.06 V 4.87891 h 76.06 V 60.3398" /><path
         id="path26"
         style="fill:#f14d1c;fill-opacity:1;fill-rule:nonzero;stroke:none"
         d="M 1125.36,171.266 V 60.3672 h -76.1 V 171.266 h 76.1" /><path
         id="path28"
         style="fill:#ed0c92;fill-opacity:1;fill-rule:nonzero;stroke:none"
         d="m 1125.36,282.176 v -110.91 h -76.1 v 110.91 h 76.1" /><path
         id="path30"
         style="fill:#ed0c92;fill-opacity:1;fill-rule:nonzero;stroke:none"
         d="M 426.957,393.074 V 226.668 h -76 v 166.406 h 76" /><path
         id="path32"
         style="fill:#ed0c92;fill-opacity:1;fill-rule:nonzero;stroke:none"
         d="m 287.059,143.57 c 0,-39.695 -14.102,-73.4958 -42.098,-101.5036 C 216.957,14.0703 183.156,0.0742188 143.457,0.0742188 103.855,0.0742188 70.0586,14.0703 42.0586,42.0664 14.0547,70.0742 -0.0390625,103.875 -0.0390625,143.57 c 0,39.602 14.0937625,73.399 42.0976625,101.399 L 91.6602,195.367 C 78.457,182.066 70.2578,163.766 70.2578,143.57 c 0,-20.3 8.1992,-38.601 21.4024,-51.7966 13.3008,-13.3007 31.5978,-21.5039 51.7968,-21.5039 20.301,0 38.602,8.2032 51.902,21.5039 13.2,13.1956 21.399,31.4966 21.399,51.7966 0,20.196 -8.199,38.496 -21.399,51.797 -13.3,13.203 -31.601,21.406 -51.902,21.406 v 70.293 c 39.699,0 73.5,-13.992 101.504,-42.097 27.996,-28 42.098,-61.797 42.098,-101.399" /><path
         id="path34"
         style="fill:#f14d1c;fill-opacity:1;fill-rule:nonzero;stroke:none"
         d="m 143.504,216.813 v 70.234 c -39.621,0 -73.4532,-14.004 -101.4727,-42.031 l 49.6679,-49.657 c 13.2538,13.25 31.5738,21.454 51.8048,21.454" /><path
         id="path36"
         style="fill:#ed0c92;fill-opacity:1;fill-rule:nonzero;stroke:none"
         d="M 994.855,143.57 V 4.87109 H 924.656 V 143.57 h 70.199" /><path
         id="path38"
         style="fill:#ed0c92;fill-opacity:1;fill-rule:nonzero;stroke:none"
         d="M 778.156,143.57 V 4.87109 H 707.859 V 143.57 h 70.297" /><path
         id="path40"
         style="fill:#f14d1c;fill-opacity:1;fill-rule:nonzero;stroke:none"
         d="m 778.156,143.57 h -70.297 c 0,20.196 -8.203,38.496 -21.398,51.797 -13.305,13.203 -31.606,21.406 -51.805,21.406 -20.297,0 -38.597,-8.203 -51.898,-21.406 -13.199,-13.301 -21.403,-31.601 -21.403,-51.797 h -70.199 c 0,39.602 14.004,73.399 42,101.399 28,28.105 61.805,42.097 101.5,42.097 39.602,0 73.403,-13.992 101.403,-42.097 28.101,-28 42.097,-61.797 42.097,-101.399" /><path
         id="path42"
         style="fill:#7b1d90;fill-opacity:1;fill-rule:nonzero;stroke:none"
         d="M 426.957,226.773 V 4.87109 h -76 V 226.773 h 76" /></g></g></svg>