<svg width="272" height="191" viewBox="0 0 272 191" fill="none" xmlns="http://www.w3.org/2000/svg">
<path d="M51.2263 111.078C51.2263 111.078 42.3344 100.336 41.3015 99.4365C40.2687 98.537 40.5354 93.7353 40.5354 93.7353L36.6367 94.1697C36.6367 94.1697 25.4362 73.0341 25.5353 72.5348C25.6345 72.0354 29.9369 66.1359 29.9369 66.1359C29.9369 66.1359 25.036 64.6346 24.4375 64.1694C23.839 63.7043 22.6694 53.9368 23.4389 47.5004C24.2049 41.0673 26.5408 38.0646 25.7063 35.2978C24.8719 32.531 32.1735 48.8991 36.6059 51.8677C41.0382 54.8363 51.4726 66.8028 51.4726 66.8028L49.6395 71.6353L55.9733 69.4362C55.9733 69.4362 61.3085 84.3714 63.7401 87.8051C66.1752 91.2387 66.8079 98.4721 67.5739 102.439C68.34 106.406 66.5069 112.973 66.5069 112.973L51.2263 111.078Z" fill="#6BC483"/>
<path d="M27.4369 41.3649C27.4369 41.3649 36.5033 74.0361 41.2365 81.567C45.9698 89.1012 65.1731 112.703 65.1731 112.703L67.5056 111.437C67.5056 111.437 47.437 85.2332 43.6374 79.9664C39.8378 74.703 27.4369 41.3649 27.4369 41.3649Z" fill="#62B26A"/>
<path d="M232.004 115.764C210.188 96.9775 215.687 92.3058 226.2 80.5513C242.979 61.796 226.7 44.0735 210.749 42.0694C199.241 40.6228 189.883 46.5599 179.582 41.105C177.592 40.0516 175.872 38.3143 174.186 36.1494C166.573 16.7033 147.643 2.92752 125.499 2.92752C96.6337 2.92752 61.2744 30.3935 59.2497 59.1899C57.6047 82.6169 70.351 88.2257 65.2518 105.056C60.5424 120.599 32.2762 114.286 18.3363 130.042C4.39633 145.798 25.0223 167.351 46.5204 178.421C90.2383 200.925 202.951 184.475 225.373 170.839C238.16 163.062 241.611 159.074 243.731 144.834C245.852 130.589 253.817 134.55 232.004 115.764Z" fill="#F4F9F9"/>
<path d="M57.0917 109.635C69.3319 107.597 83.0974 113.034 93.2992 110.74C103.498 108.445 111.148 103.089 121.6 101.56C132.051 100.032 156.532 96.7142 173.615 100.032C190.697 103.346 212.626 103.855 212.626 103.855C212.626 103.855 254.2 105.781 261.851 112.155C269.501 118.53 272.801 128.076 269.484 137.511C266.17 146.944 258.01 153.828 253.93 157.146C249.85 160.46 156.275 149.242 134.859 150.771C113.443 152.299 71.8798 154.851 53.5212 155.87C35.1627 156.889 17.0196 130.815 23.7741 124.933C34.3145 115.753 46.7017 111.365 57.0917 109.635Z" fill="#6BC483"/>
<path d="M245.999 58.6838C246.464 65.192 250.072 66.3206 254.908 64.5388C259.744 62.757 262.801 57.155 260 53.0818C257.199 49.0086 252.107 49.5182 249.053 50.7904C245.999 52.0626 245.742 55.1167 245.999 58.6838Z" fill="#F4F9F9"/>
<path d="M42.3412 47.9758C46.4418 47.9758 49.766 44.6516 49.766 40.551C49.766 36.4503 46.4418 33.1261 42.3412 33.1261C38.2406 33.1261 34.9164 36.4503 34.9164 40.551C34.9164 44.6516 38.2406 47.9758 42.3412 47.9758Z" fill="#F4F9F9"/>
<path d="M183.478 24.8429C190.338 24.8429 195.899 19.2816 195.899 12.4214C195.899 5.56127 190.338 0 183.478 0C176.618 0 171.056 5.56127 171.056 12.4214C171.056 19.2816 176.618 24.8429 183.478 24.8429Z" fill="#F4F9F9"/>
<path d="M12.7274 154.936C19.8136 165.436 56.0725 181.455 92.7896 169.724C129.507 157.997 177.951 177.628 199.367 182.218C220.783 186.807 253.93 168.958 259.542 156.212C265.151 143.462 285.038 109.553 230.475 109.043C175.913 108.534 136.644 107.005 114.719 114.142C92.7896 121.28 51.9958 115.671 33.1277 127.911C14.2561 140.148 -1.04152 134.536 12.7274 154.936Z" fill="#2D82B7"/>
<path d="M115.775 100.271C115.731 100.271 115.687 100.264 115.642 100.254C115.368 100.182 115.204 99.8982 115.28 99.628C116.815 93.8585 116.015 87.8359 113.022 82.6717C110.03 77.504 105.204 73.8139 99.4347 72.2783C89.7287 69.6928 79.4243 73.9404 74.3729 82.6067C74.2293 82.8529 73.9146 82.935 73.6718 82.7914C73.4256 82.6477 73.3435 82.3331 73.4872 82.0903C78.7711 73.0273 89.5509 68.5847 99.6981 71.2899C105.731 72.8973 110.779 76.7585 113.908 82.1621C117.037 87.5657 117.875 93.8653 116.268 99.8982C116.21 100.121 116.001 100.271 115.775 100.271Z" fill="#222151"/>
<path d="M109.835 101.328C109.787 101.328 109.736 101.321 109.688 101.307C109.418 101.225 109.26 100.941 109.342 100.668C110.669 96.2251 110.184 91.5329 107.981 87.4562C105.779 83.3796 102.116 80.4008 97.6769 79.0772C89.226 76.5567 80.2383 80.7565 76.7704 88.8482C76.6575 89.1081 76.3566 89.2278 76.0966 89.1184C75.8367 89.0055 75.717 88.7045 75.8265 88.4446C79.4995 79.8741 89.0174 75.4247 97.9676 78.0923C102.673 79.4945 106.548 82.6477 108.884 86.9672C111.22 91.2866 111.73 96.2559 110.327 100.962C110.259 101.184 110.054 101.328 109.835 101.328Z" fill="#222151"/>
<path d="M103.822 103.11C103.744 103.11 103.665 103.092 103.593 103.055C103.34 102.928 103.238 102.621 103.368 102.367C104.811 99.5083 105.05 96.2559 104.048 93.2155C103.046 90.1717 100.919 87.7025 98.0598 86.2627C92.1569 83.2873 84.9305 85.6676 81.9517 91.5705C81.8251 91.8236 81.5139 91.9262 81.2643 91.7962C81.0112 91.6697 80.9086 91.3619 81.0385 91.1088C84.2704 84.6997 92.1124 82.1142 98.5249 85.3461C104.934 88.578 107.519 96.4235 104.288 102.833C104.188 103.004 104.011 103.11 103.822 103.11Z" fill="#222151"/>
<path d="M74.2567 133.907C73.4906 133.907 72.7997 133.397 72.1328 132.901C71.5446 132.467 70.9393 132.019 70.3579 131.974C69.1643 131.892 68.0801 133.141 68.0699 133.154C67.8852 133.37 67.5637 133.394 67.3482 133.212C67.1328 133.028 67.1054 132.706 67.2901 132.491C67.3483 132.422 68.7334 130.822 70.4399 130.952C71.3121 131.02 72.0747 131.581 72.745 132.077C73.3299 132.508 73.8873 132.922 74.3217 132.877C74.6842 132.843 75.2861 132.381 75.8675 131.933C76.9004 131.14 78.1829 130.155 79.6911 130.155C81.1344 130.155 81.8183 130.747 82.3177 131.178C82.7075 131.513 82.8922 131.663 83.2753 131.629C84.4791 131.53 85.8471 130.596 85.8608 130.586C86.0934 130.425 86.4149 130.483 86.5756 130.716C86.7363 130.948 86.6782 131.266 86.4456 131.431C86.3807 131.475 84.8417 132.528 83.3642 132.655C82.5434 132.72 82.068 132.316 81.6508 131.957C81.1891 131.561 80.7547 131.184 79.6945 131.184C78.5317 131.184 77.451 132.015 76.4934 132.751C75.7307 133.336 75.0741 133.842 74.414 133.903C74.3593 133.903 74.308 133.907 74.2567 133.907Z" fill="white"/>
<path d="M91.8526 140.61C91.0865 140.61 90.3991 140.1 89.7288 139.604C89.1405 139.17 88.5351 138.722 87.9538 138.678C86.7636 138.595 85.6761 139.847 85.6658 139.857C85.4811 140.073 85.1596 140.1 84.9442 139.916C84.7287 139.731 84.7013 139.409 84.886 139.194C84.9442 139.126 86.319 137.515 88.0358 137.655C88.9079 137.723 89.6706 138.284 90.3409 138.78C90.9257 139.211 91.4798 139.628 91.9176 139.58C92.2801 139.546 92.882 139.085 93.4668 138.637C94.4962 137.843 95.7821 136.858 97.2904 136.858C98.7336 136.858 99.4176 137.45 99.9169 137.881C100.307 138.219 100.495 138.37 100.875 138.332C102.078 138.233 103.446 137.296 103.46 137.289C103.693 137.128 104.014 137.186 104.175 137.419C104.336 137.652 104.277 137.973 104.045 138.134C103.98 138.178 102.441 139.232 100.963 139.358C100.136 139.427 99.6673 139.02 99.25 138.66C98.7883 138.264 98.354 137.888 97.2938 137.888C96.131 137.888 95.0503 138.719 94.0927 139.454C93.33 140.039 92.6733 140.545 92.0133 140.606C91.9551 140.61 91.9039 140.61 91.8526 140.61Z" fill="white"/>
<path d="M58.1382 142.043C57.3721 142.043 56.6847 141.533 56.0144 141.037C55.4261 140.603 54.8208 140.155 54.2394 140.111C53.0493 140.025 51.9617 141.28 51.9514 141.29C51.7667 141.506 51.4453 141.53 51.2298 141.349C51.0143 141.164 50.987 140.842 51.1717 140.627C51.2298 140.559 52.6012 138.948 54.3215 139.088C55.1936 139.156 55.9562 139.717 56.6266 140.213C57.2114 140.644 57.762 141.058 58.2032 141.013C58.5657 140.979 59.1676 140.518 59.7524 140.07C60.7819 139.276 62.0678 138.291 63.576 138.291C65.0192 138.291 65.7032 138.883 66.2025 139.314C66.5924 139.649 66.7771 139.799 67.1602 139.765C68.364 139.666 69.732 138.732 69.7457 138.722C69.9782 138.561 70.2997 138.619 70.4604 138.852C70.6212 139.085 70.5631 139.403 70.3305 139.567C70.2655 139.611 68.7265 140.665 67.2491 140.791C66.4283 140.856 65.9529 140.453 65.5357 140.093C65.074 139.697 64.6396 139.321 63.5794 139.321C62.4166 139.321 61.3359 140.152 60.3783 140.887C59.6156 141.472 58.959 141.978 58.2989 142.039C58.2408 142.043 58.1895 142.043 58.1382 142.043Z" fill="white"/>
<path d="M74.6055 148.37C73.8394 148.37 73.1486 147.86 72.4817 147.364C71.8934 146.93 71.2881 146.482 70.7067 146.438C69.52 146.355 68.429 147.607 68.4187 147.617C68.234 147.833 67.9126 147.86 67.6971 147.676C67.4816 147.491 67.4543 147.169 67.639 146.954C67.6971 146.886 69.0788 145.285 70.7888 145.415C71.6609 145.483 72.4236 146.044 73.0939 146.54C73.6787 146.971 74.2327 147.388 74.6705 147.34C75.033 147.306 75.6349 146.845 76.2198 146.397C77.2492 145.603 78.5351 144.618 80.0433 144.618C81.4865 144.618 82.1705 145.21 82.6699 145.641C83.0597 145.976 83.2444 146.126 83.6274 146.092C84.8313 145.993 86.1993 145.056 86.213 145.049C86.4455 144.888 86.767 144.946 86.9278 145.179C87.0885 145.412 87.0303 145.733 86.7978 145.894C86.7328 145.938 85.1938 146.992 83.7164 147.118C82.8956 147.187 82.4202 146.78 82.0029 146.42C81.5412 146.024 81.1069 145.648 80.0467 145.648C78.8839 145.648 77.8032 146.479 76.8456 147.214C76.0829 147.799 75.4263 148.305 74.7663 148.366C74.7081 148.37 74.6568 148.37 74.6055 148.37Z" fill="white"/>
<path d="M105.081 132.665C104.315 132.665 103.628 132.156 102.957 131.66C102.369 131.225 101.764 130.777 101.182 130.733C99.9956 130.644 98.9046 131.903 98.8943 131.913C98.7096 132.128 98.3882 132.156 98.1727 131.971C97.9572 131.786 97.9299 131.465 98.1146 131.249C98.1727 131.181 99.5544 129.58 101.264 129.71C102.137 129.779 102.899 130.34 103.569 130.836C104.154 131.266 104.705 131.677 105.146 131.636C105.509 131.602 106.111 131.14 106.695 130.692C107.728 129.898 109.011 128.913 110.519 128.913C111.962 128.913 112.646 129.505 113.146 129.936C113.535 130.271 113.72 130.422 114.103 130.387C115.307 130.288 116.675 129.355 116.689 129.344C116.921 129.184 117.243 129.242 117.403 129.474C117.564 129.707 117.506 130.025 117.273 130.189C117.208 130.234 115.67 131.287 114.192 131.413C113.371 131.478 112.896 131.075 112.479 130.716C112.017 130.319 111.583 129.943 110.522 129.943C109.36 129.943 108.279 130.774 107.321 131.509C106.559 132.094 105.902 132.6 105.242 132.662C105.184 132.665 105.132 132.665 105.081 132.665Z" fill="white"/>
<path d="M122.079 121.786C121.312 121.786 120.622 121.277 119.955 120.781C119.366 120.346 118.761 119.898 118.18 119.854C116.993 119.772 115.902 121.024 115.892 121.034C115.707 121.249 115.386 121.277 115.17 121.092C114.955 120.907 114.927 120.586 115.112 120.37C115.17 120.302 116.548 118.698 118.262 118.831C119.134 118.9 119.897 119.461 120.567 119.957C121.152 120.387 121.706 120.805 122.144 120.757C122.506 120.723 123.108 120.261 123.693 119.813C124.722 119.019 126.008 118.034 127.516 118.034C128.96 118.034 129.644 118.626 130.143 119.057C130.533 119.392 130.717 119.543 131.1 119.508C132.304 119.409 133.672 118.476 133.686 118.465C133.919 118.305 134.24 118.363 134.401 118.595C134.562 118.828 134.503 119.146 134.271 119.31C134.206 119.355 132.667 120.408 131.189 120.534C130.369 120.603 129.893 120.196 129.476 119.837C129.014 119.44 128.58 119.064 127.52 119.064C126.357 119.064 125.276 119.895 124.319 120.63C123.556 121.215 122.899 121.721 122.239 121.783C122.181 121.786 122.13 121.786 122.079 121.786Z" fill="white"/>
<path d="M11.2739 130.22C11.079 126.325 14.4032 119.786 14.8512 117.549C15.2993 115.312 13.2131 111.588 14.2562 108.308C15.2993 105.028 20.2172 105.028 21.2603 102.644C22.3034 100.261 23.497 94.8947 26.4758 94.5938C29.4547 94.2928 30.6483 95.9344 30.0532 99.9598C29.4581 103.985 28.2645 104.878 29.3076 107.412C30.3507 109.946 31.0963 111.287 30.5012 113.373C29.9061 115.459 26.0278 116.95 26.0278 119.782C26.0278 122.614 27.666 123.657 26.9239 129.173C26.1783 134.69 24.8377 134.389 22.601 134.837C20.3643 135.285 11.5715 136.184 11.2739 130.22Z" fill="#62B26A"/>
<path d="M1.96128 119.078C1.96128 117.378 -0.572959 114.457 0.918163 111.923C2.40928 109.389 5.09059 111.027 6.58171 113.264C8.07283 115.5 6.73216 117.289 8.21986 118.182C9.70757 119.074 12.0947 119.225 13.4354 121.461C14.776 123.698 12.8403 125.634 14.0304 127.573C15.224 129.512 17.7583 129.957 18.9484 132.939C20.1386 135.921 17.7548 138.9 15.9662 139.796C14.1775 140.692 7.61797 140.839 6.57486 138.9C5.53176 136.961 3.14802 129.362 1.6569 127.422C0.165774 125.483 -0.282242 123.25 0.165779 121.608C0.620639 119.974 1.96128 120.418 1.96128 119.078Z" fill="#6BC483"/>
<path d="M26.0415 98.7559C25.9868 98.2532 23.0969 109.522 20.3745 114.396C17.6522 119.269 17.6557 132.754 17.6557 132.754L19.3554 135.247L20.8294 135.022C20.8294 135.022 19.2425 119.269 21.6229 115.531C24.0032 111.79 26.3801 101.93 26.0415 98.7559Z" fill="#6BC483"/>
<path d="M12.3307 140.459L14.9367 140.234C14.9367 140.234 14.8375 137.347 14.0304 134.115C13.237 130.942 10.1761 127.091 8.02492 124.597C5.87032 122.104 3.71915 113.718 3.71915 113.718C3.71915 113.718 4.28684 122.559 6.55088 125.504C8.81492 128.448 11.6501 132.983 11.763 134.796C11.8759 136.608 12.3307 140.459 12.3307 140.459Z" fill="#62B26A"/>
<path d="M109.777 125.815C109.961 125.528 108.583 120.846 108.566 119.772C108.552 118.698 108.799 117.983 107.54 116.786C106.281 115.589 102.981 111.106 101.801 109.902C100.621 108.698 97.581 105.5 94.6056 104.833C91.6268 104.166 89.609 103.034 89.0755 103.079C88.542 103.123 85.2383 102.255 84.4277 102.631C83.6138 103.007 80.3579 105.363 79.6808 106.42C79.0036 107.477 74.284 112.494 74.2669 113.185C74.2498 113.876 74.6704 114.303 74.3592 115.175C74.0514 116.047 73.6684 116.078 72.9468 117.525C72.2252 118.972 71.2778 119.591 71.271 121.28C71.2642 122.97 70.5083 124.037 71.7429 124.084C72.9775 124.132 74.9714 124.115 77.0679 125.24C79.1609 126.366 86.3463 128.595 89.6124 127.238C92.8785 125.883 99.0311 125.045 101.391 125.688C103.751 126.331 108.826 127.279 109.777 125.815Z" fill="#222151"/>
<path d="M105.899 126.578C105.878 126.349 105.57 118.677 104.524 117.231C103.477 115.784 103.022 111.365 103.022 111.365C103.022 111.365 108.535 117.426 108.631 117.648C108.727 117.87 109.038 120.61 109.038 120.61L110.03 125.904C110.03 125.904 109.288 126.824 108.272 126.899C107.256 126.974 105.899 126.578 105.899 126.578Z" fill="#2D82B7"/>
<path d="M151.532 43.6905V48.3793L147.807 50.1919L152.411 54.826L159.678 48.9915L157.028 47.8458L157.67 39.2616L151.532 43.6905Z" fill="#F3C8C2"/>
<path d="M147.092 51.3376L151.651 52.4115L157.534 52.4936L159.678 48.9915L152.516 69.3405L147.092 51.3376Z" fill="#222151"/>
<path d="M140.81 88.1334C140.782 89.1594 138.276 115.74 138.44 118.616C138.98 128.106 145.399 167.252 145.399 167.252L149.692 167.977C149.692 167.977 152.404 132.371 152.465 129.909C152.527 127.446 148.447 118.513 148.447 118.513L153.614 101.194C153.614 101.194 156.617 120.162 156.993 121.608C157.366 123.055 163.207 168.028 163.207 168.028L167.848 167.85C167.848 167.85 168.498 121.287 168.105 120.661C167.712 120.035 164.958 91.2182 164.958 91.2182L140.81 88.1334Z" fill="#222151"/>
<path d="M163.864 171.349L167.954 171.427L168.409 176.742L163.361 181.92C162.896 182.351 162.14 182.043 162.103 181.41L161.768 175.593L163.864 171.349Z" fill="#222151"/>
<path d="M145.622 172.522L136.47 177.156C135.947 177.433 136.176 178.23 136.767 178.185L148.789 177.31L150.321 173.654L149.237 172.943L149.148 173.459L145.622 172.522Z" fill="#222151"/>
<path d="M121.073 67.8494C121.073 67.8494 119.972 68.0956 119.182 66.8439C118.392 65.5922 117.824 61.0607 116.73 61.0333C115.635 61.006 116.391 63.6257 116.237 64.1695C116.083 64.7132 113.221 64.3644 112.834 63.3965C112.448 62.4287 112.783 60.1099 111.948 60.6366C111.114 61.1633 111.049 63.6257 111.699 65.0108C112.349 66.3959 113.245 68.7454 114.466 69.1866C115.687 69.6278 120.42 71.8029 120.42 71.8029L121.073 67.8494Z" fill="#F3C8C2"/>
<path d="M149.548 30.2944C148.539 32.3224 147.007 38.5776 147.007 38.5776L148.508 38.752C148.508 38.752 148.101 41.341 149.432 42.7466C149.886 43.2254 149.859 43.3827 150.232 43.5879C150.95 43.9812 151.891 44.3027 152.903 43.5195C154.439 42.3259 157.677 38.8512 158.505 38.5981C159.333 38.3451 159.774 37.1241 159.811 35.7561C159.849 34.3881 159.042 33.6836 157.927 34.477C156.812 35.2705 155.971 30.7321 155.157 30.438C154.343 30.1439 149.548 30.2944 149.548 30.2944Z" fill="#F3C8C2"/>
<path d="M159.678 48.9915C159.678 48.9915 157.499 50.64 154.911 50.7186C152.322 50.7973 150.198 50.3937 150.198 50.3937L148.132 49.6653C148.132 49.6653 138.433 52.7638 138.399 54.2002C138.361 55.6366 135.936 70.1511 134.267 71.136C132.598 72.121 122.68 66.5259 121.846 67.1209C121.008 67.716 120.262 72.8289 120.262 72.8289C120.262 72.8289 133.378 81.7893 135.663 80.8215C137.947 79.8536 141.843 69.2413 141.843 69.2413C141.843 69.2413 139.52 90.2333 140.314 91.4235C142.168 94.2039 156.169 92.4324 158.631 92.4973C161.094 92.5589 165.301 91.3687 165.519 90.7566C165.902 89.6998 164.976 80.8215 164.425 75.9069C164.186 73.7557 164.418 71.5806 165.109 69.532L167.329 62.9485C167.329 62.9485 169.774 71.6353 169.702 74.5081C169.63 77.3809 161.843 91.0267 161.843 91.0267L165.184 95.1068C165.184 95.1068 174.449 81.4063 175.359 77.9384C176.268 74.4705 173.649 56.5395 172.893 54.0565C172.137 51.5668 159.678 48.9915 159.678 48.9915Z" fill="#F5AD45"/>
<path d="M145.403 167.252L146.125 172.621L149.161 173.387L149.695 167.977L145.403 167.252Z" fill="#F3C8C2"/>
<path d="M163.703 167.943L163.997 171.893L167.602 172.252L167.257 167.837L163.703 167.943Z" fill="#F3C8C2"/>
<path d="M188.991 181.489C188.68 180.555 189.302 164.064 191.634 162.662C193.967 161.263 196.614 164.061 196.614 164.061C196.614 164.061 194.747 159.239 195.058 157.836C195.369 156.438 207.038 142.433 208.283 143.055C209.528 143.678 211.706 147.412 212.018 146.167C212.329 144.923 212.483 139.478 213.574 138.387C214.661 137.299 233.023 122.829 232.866 118.161C232.712 113.493 228.044 151.612 226.953 152.857C225.865 154.102 221.197 153.168 221.819 154.413C222.442 155.658 223.841 158.613 223.841 159.393C223.841 160.169 219.484 171.995 217.305 173.394C215.127 174.793 208.902 182.885 205.947 184.752C202.992 186.619 200.656 188.329 200.656 188.329L188.991 181.489Z" fill="#62B26A"/>
<path d="M192.257 183.203L193.813 184.447C193.813 184.447 210.15 172.624 213.574 163.131C216.997 153.64 222.599 140.415 225.243 136.68C227.887 132.946 214.661 153.172 212.797 158.151C210.93 163.131 204.863 171.687 202.062 174.331C199.258 176.978 192.257 183.203 192.257 183.203Z" fill="#6BC483"/>
<path d="M242.712 99.2655C242.712 99.2655 250.021 94.5049 251.553 88.3865C253.082 82.2681 253.591 77.6785 250.872 74.279C248.153 70.8795 244.412 71.0505 243.054 74.45C241.693 77.8495 244.073 84.8195 244.244 88.2189C244.412 91.6184 242.712 99.2655 242.712 99.2655Z" fill="#F3C8C2"/>
<path d="M248.492 112.186C248.492 112.186 247.302 103.688 250.872 97.5692C254.443 91.4508 258.861 88.7285 261.242 90.2607C263.622 91.7894 260.732 102.159 257.842 104.71C254.949 107.255 248.492 112.186 248.492 112.186Z" fill="#F3C8C2"/>
<path d="M250.869 127.313C250.869 126.803 253.249 116.263 258.006 111.335C262.767 106.406 267.186 104.026 270.247 106.065C273.307 108.103 267.528 118.472 263.619 120.853C259.71 123.233 250.869 127.313 250.869 127.313Z" fill="#F3C8C2"/>
<path d="M235.742 88.7285C235.742 88.7285 240.841 80.2298 239.993 75.8112C239.142 71.3925 238.632 68.8412 234.723 69.1832C230.814 69.5252 231.324 75.3016 232.172 78.1915C233.023 81.078 235.742 88.7285 235.742 88.7285Z" fill="#F3C8C2"/>
<path d="M225.715 78.1881C225.715 78.1881 228.095 72.9179 227.076 68.4992C226.057 64.0806 225.038 61.3617 221.977 62.0388C218.916 62.716 219.938 67.8186 220.958 69.857C221.973 71.8987 225.715 78.1881 225.715 78.1881Z" fill="#F3C8C2"/>
<path d="M218.745 73.7695C218.745 73.7695 210.075 63.229 205.318 64.7611C200.561 66.2933 202.938 68.8412 203.789 69.6894C204.634 70.541 211.604 74.9596 218.745 73.7695Z" fill="#F3C8C2"/>
<path d="M228.263 82.0972C228.263 82.0972 217.045 77.6785 212.455 77.1689C207.866 76.6594 206.676 78.1881 207.527 81.5876C208.379 84.9871 217.726 85.1581 219.935 84.8161C222.144 84.4775 228.263 82.0972 228.263 82.0972Z" fill="#F3C8C2"/>
<path d="M238.803 94.5083C238.803 94.5083 232.175 88.219 226.563 87.7094C220.954 87.1998 218.235 88.39 217.893 90.9379C217.555 93.4892 224.354 95.1889 227.243 95.3565C230.133 95.5275 238.803 94.5083 238.803 94.5083Z" fill="#F3C8C2"/>
<path d="M244.412 104.707C244.412 104.707 233.362 102.155 229.453 100.627C225.544 99.0979 223.502 98.2464 221.973 100.288C220.445 102.326 219.935 105.558 226.563 107.939C233.191 110.319 238.971 109.129 241.012 108.448C243.051 107.764 244.412 104.707 244.412 104.707Z" fill="#F3C8C2"/>
<path d="M249.34 121.024C249.34 121.024 235.742 116.943 232.51 114.905C229.282 112.867 227.921 113.205 226.392 115.757C224.863 118.308 229.453 123.575 235.571 124.084C241.69 124.594 246.112 124.084 249.34 121.024Z" fill="#F3C8C2"/>
<path d="M251.892 140.148C251.892 140.148 241.864 127.06 233.362 128.079C224.863 129.098 229.962 135.897 233.191 137.087C236.423 138.277 251.892 140.148 251.892 140.148Z" fill="#F3C8C2"/>
<path d="M239.398 175.08C239.183 175.08 238.984 174.943 238.913 174.728C238.789 174.362 238.957 174.146 239.891 172.96C242.1 170.145 247.969 162.665 250.373 151.26C253.53 136.256 250.561 117.121 245.995 107.993C239.969 95.9413 234.976 88.1026 231.153 84.6895C226.471 80.5068 215.25 72.5656 215.137 72.4869C214.904 72.3228 214.849 72.0047 215.014 71.7721C215.178 71.5396 215.496 71.4849 215.728 71.649C215.841 71.7277 227.11 79.7031 231.837 83.9234C235.811 87.4734 240.742 95.1957 246.912 107.535C251.553 116.817 254.58 136.253 251.375 151.472C248.923 163.11 242.948 170.726 240.698 173.596C240.356 174.03 240.004 174.478 239.908 174.646C239.88 174.83 239.75 174.991 239.562 175.056C239.504 175.073 239.449 175.08 239.398 175.08Z" fill="#222151"/>
<path d="M196.768 185.692C196.768 185.692 217.773 169.977 218.085 164.998C218.396 160.018 222.907 169.977 222.907 169.977L225.085 159.242C225.085 159.242 231.31 155.976 233.177 151.93C233.625 150.959 235.469 154.536 236.132 153.329C236.607 152.464 235.882 146.868 236.375 145.901C238.051 142.611 239.583 138.767 239.402 134.659C239.09 127.658 240.178 126.102 240.178 126.102C240.178 126.102 244.846 133.725 245.469 136.995C246.091 140.261 246.714 156.287 245.004 162.043C243.294 167.799 236.703 182.861 220.277 188.339C204.21 193.692 196.768 185.692 196.768 185.692Z" fill="#6BC483"/>
<path d="M94.1576 108.814C93.8156 108.814 93.5352 108.534 93.5352 108.192V93.3455C93.5352 93.0035 93.8156 92.723 94.1576 92.723C94.4996 92.723 94.7801 93.0035 94.7801 93.3455V108.192C94.7801 108.534 94.4996 108.814 94.1576 108.814Z" fill="#222151"/>
<path d="M116.288 56.6147L108.525 58.612C106.37 58.8377 104.53 56.8131 104.53 54.6174V26.1459C104.53 23.9503 106.059 22.9174 108.525 22.1514L116.288 20.1541C118.809 19.518 120.283 21.953 120.283 24.1486V52.6201C120.283 54.8158 118.894 55.8931 116.288 56.6147Z" fill="#222151"/>
<path d="M117.362 55.4382L109.089 57.5347C107.051 57.5347 105.717 56.0607 105.717 54.0223V26.8983C105.717 24.86 107.136 23.9024 109.425 23.1911L110.656 22.8662L111.624 23.386L114.938 22.4523L115.567 21.57L117.53 21.0501C119.059 20.6534 119.668 23.0098 119.668 25.0481V51.471C119.674 53.5059 119.784 54.7679 117.362 55.4382Z" fill="#2D82B7"/>
<path d="M107.844 39.0188C107.773 39.0188 107.697 39.0051 107.626 38.9709C107.369 38.8512 107.26 38.5434 107.379 38.2869L110.221 32.2233L113.357 35.0311L114.346 31.6453L117.29 27.661C117.458 27.4318 117.78 27.384 118.009 27.555C118.238 27.7225 118.286 28.044 118.115 28.2732L115.28 32.1104L113.888 36.8847L110.567 33.9127L108.31 38.7281C108.224 38.9094 108.036 39.0188 107.844 39.0188Z" fill="#F4F9F9"/>
<path d="M109.141 51.3855C108.857 51.3855 108.628 51.1564 108.628 50.8725V44.7541C108.628 44.4703 108.857 44.2411 109.141 44.2411C109.425 44.2411 109.654 44.4703 109.654 44.7541V50.8725C109.654 51.1529 109.425 51.3855 109.141 51.3855Z" fill="#F5AD45"/>
<path d="M112.937 50.3219C112.653 50.3219 112.424 50.0927 112.424 49.8089V41.9771C112.424 41.6932 112.653 41.4641 112.937 41.4641C113.221 41.4641 113.45 41.6932 113.45 41.9771V49.8089C113.45 50.0927 113.221 50.3219 112.937 50.3219Z" fill="#F5AD45"/>
<path d="M116.853 49.118C116.569 49.118 116.34 48.8889 116.34 48.605V44.0154C116.34 43.7316 116.569 43.5024 116.853 43.5024C117.137 43.5024 117.366 43.7316 117.366 44.0154V48.605C117.366 48.8889 117.137 49.118 116.853 49.118Z" fill="#F5AD45"/>
<path d="M67.4303 42.2883C67.4303 42.2883 60.9494 36.6761 63.2852 30.9955C65.6211 25.3183 68.4495 23.899 66.9652 20.0857C65.4809 16.2689 66.5992 11.1116 68.3674 9.15192C70.1355 7.19226 73.9113 17.3428 74.8826 19.1759C75.8538 21.0091 74.2498 29.3573 73.1554 32.2335C72.061 35.1097 67.4303 42.2883 67.4303 42.2883Z" fill="#62B26A"/>
<path d="M74.3113 38.174C74.2087 35.5167 76.4249 32.189 79.5474 31.3067C82.6699 30.4243 88.7917 26.6862 89.9238 27.4557C91.0558 28.2287 86.0318 36.5393 84.2842 36.5974C82.5365 36.6556 81.0762 38.0099 79.8484 39.289C78.6206 40.5749 74.4345 41.2931 74.3113 38.174Z" fill="#62B26A"/>
<path d="M69.8722 49.0804C69.9645 47.4081 72.1191 44.6926 75.8538 43.7418C79.5884 42.7911 84.5782 45.7288 87.3963 45.0722C90.2144 44.4156 92.9538 44.2924 93.4771 45.1338C94.0003 45.9751 86.9586 50.7699 84.9818 50.9033C83.005 51.0367 80.1117 51.4642 78.8189 51.3752C77.5262 51.2863 76.0658 53.0203 74.0172 52.5449C71.9687 52.0695 69.8722 49.0804 69.8722 49.0804Z" fill="#62B26A"/>
<path d="M58.2922 51.5496C58.2785 52.8766 50.3851 51.7001 48.8222 48.4135C47.2592 45.1269 49.7353 40.6672 46.7941 38.2048C43.8529 35.7424 41.3768 32.3737 40.3337 30.3114C39.2906 28.2492 40.1422 26.5836 41.4452 25.5337C42.7482 24.4838 49.171 28.3484 51.6573 30.5748C54.1437 32.8046 56.3017 37.5379 57.2696 39.7541C58.234 41.9702 58.3058 50.0277 58.2922 51.5496Z" fill="#62B26A"/>
<path d="M59.2121 66.1531C59.6054 64.4636 63.3092 59.2754 69.9167 59.7987C76.5241 60.322 85.7308 59.4977 87.5468 60.428C89.3628 61.3582 81.7157 65.8453 79.1951 67.0354C76.6746 68.2256 73.4769 68.8788 71.654 68.7078C69.8312 68.5368 68.6034 69.8193 66.6984 70.1784C64.7935 70.5443 58.7333 68.2016 59.2121 66.1531Z" fill="#62B26A"/>
<path d="M56.8079 70.8453C56.4385 69.6996 56.9618 63.0922 51.8147 60.8384C46.6676 58.5812 41.5888 56.9362 39.3214 55.7734C37.0539 54.6106 35.0224 52.2337 34.2529 53.3657C33.48 54.4977 40.2208 64.8295 40.2208 64.8295C40.2208 64.8295 41.346 66.3617 44.383 66.7721C47.4199 67.1825 47.909 71.4438 50.0362 71.7687C52.1566 72.0902 56.8079 70.8453 56.8079 70.8453Z" fill="#62B26A"/>
<path d="M62.9707 109.355C62.9023 109.355 62.8372 109.341 62.7688 109.313C62.5089 109.204 62.3858 108.903 62.4987 108.64C62.5466 108.527 67.2354 97.3059 63.983 88.5062C61.8318 82.6751 61.5685 81.8098 60.3202 77.6374L59.7045 75.5889C57.6389 68.742 56.7428 59.0155 60.4193 52.2405C63.8461 45.9306 76.5344 37.0215 77.0747 36.6453C77.3073 36.4846 77.6253 36.5393 77.7895 36.7718C77.9502 37.0044 77.8955 37.3225 77.6629 37.4866C77.533 37.579 64.6328 46.6351 61.3222 52.733C57.7962 59.2276 58.682 68.6463 60.6895 75.2947L61.3051 77.3467C62.55 81.4918 62.8065 82.3536 64.9508 88.154C68.3434 97.3401 63.6478 108.571 63.446 109.047C63.3605 109.238 63.169 109.355 62.9707 109.355Z" fill="#2D82B7"/>
<path d="M66.2846 46.6317C66.1854 46.6317 66.0828 46.6043 65.9973 46.5428C65.7648 46.382 65.7032 46.064 65.864 45.8314C69.5576 40.4141 69.8517 28.3826 69.8551 28.2629C69.8619 27.979 70.0842 27.7636 70.3783 27.7601C70.6622 27.767 70.8879 27.9995 70.8811 28.2834C70.8708 28.7896 70.5801 40.739 66.7121 46.4094C66.6095 46.553 66.4488 46.6317 66.2846 46.6317Z" fill="#2D82B7"/>
<path d="M58.4939 63.2597C58.2101 63.2597 57.9809 63.0306 57.9809 62.7467C57.9809 59.7029 56.76 54.3301 55.8674 50.4074C55.6622 49.5045 55.4775 48.6871 55.3304 48.01C54.5917 44.566 51.3495 39.3026 51.3153 39.2479C51.1648 39.0051 51.24 38.6905 51.4829 38.54C51.7223 38.3895 52.0403 38.4647 52.1908 38.7076C52.3276 38.9299 55.563 44.1796 56.3359 47.7945C56.4795 48.4682 56.6642 49.2788 56.8694 50.1782C57.7723 54.1489 59.0103 59.5867 59.0103 62.7467C59.0069 63.0306 58.7778 63.2597 58.4939 63.2597Z" fill="#2D82B7"/>
<path d="M60.3065 75.9548C60.0979 75.9548 59.9029 75.8248 59.8243 75.6196C56.394 66.3104 47.8816 63.978 47.7961 63.954C47.5225 63.8822 47.3583 63.6018 47.4302 63.3282C47.502 63.0546 47.779 62.887 48.0561 62.9622C48.4254 63.058 57.167 65.4383 60.7888 75.264C60.8879 75.5307 60.7511 75.8248 60.4844 75.924C60.4262 75.9445 60.3647 75.9548 60.3065 75.9548Z" fill="#2D82B7"/>
<path d="M61.3564 52.497C61.1854 52.497 61.0178 52.4115 60.9221 52.2576C60.7716 52.0182 60.8434 51.7001 61.0862 51.5496C61.4932 51.2966 71.1341 45.3423 79.6533 47.1481C79.9303 47.2062 80.1082 47.4798 80.0501 47.7569C79.9919 48.0339 79.7183 48.2083 79.4413 48.1536C71.3325 46.4333 61.7292 52.3602 61.6334 52.4217C61.5411 52.4696 61.4487 52.497 61.3564 52.497Z" fill="#2D82B7"/>
<path d="M161.645 33.4544C161.58 32.9278 161.405 32.3429 161.214 31.871C161.241 31.1699 161.244 30.5304 161.22 30.055C161.159 28.7964 159.589 28.4989 159.589 28.4989C159.589 28.4989 158.994 28.2424 158.153 27.9072C158.043 27.4182 157.814 26.9017 157.564 26.4845C157.055 25.6329 155.441 25.0413 153.57 25.5508C152.763 25.7697 152.274 25.9989 151.973 26.2451C150.3 26.1528 148.607 26.4879 148.101 28.0645C147.359 30.373 148.672 32.4592 148.672 32.4592C148.672 32.4592 151.644 31.3717 154.097 31.847C155.102 32.042 154.808 33.7212 155.379 35.1644C155.557 35.609 157.017 34.5865 157.233 35.0071C157.667 35.8553 157.14 37.9962 157.134 38.9059C157.127 39.6515 157.67 39.2616 157.67 39.2616C157.67 39.2616 159.89 38.3006 160.372 37.278C160.519 36.9634 160.646 36.5222 160.755 36.016C160.854 35.9066 160.95 35.7869 161.053 35.6638C161.474 35.1542 161.816 34.8156 161.645 33.4544Z" fill="#181658"/>
<path d="M160.085 92.7778C160.085 92.7778 163.313 97.2546 165.071 95.5548C165.129 95.4967 162.636 92.1553 162.636 92.1553L160.085 92.7778Z" fill="#222151"/>
</svg>
