<?xml version="1.0" encoding="UTF-8" standalone="no"?>
<!-- Created with Inkscape (http://www.inkscape.org/) -->

<svg
   xmlns:dc="http://purl.org/dc/elements/1.1/"
   xmlns:cc="http://creativecommons.org/ns#"
   xmlns:rdf="http://www.w3.org/1999/02/22-rdf-syntax-ns#"
   xmlns:svg="http://www.w3.org/2000/svg"
   xmlns="http://www.w3.org/2000/svg"
   xmlns:sodipodi="http://sodipodi.sourceforge.net/DTD/sodipodi-0.dtd"
   xmlns:inkscape="http://www.inkscape.org/namespaces/inkscape"
   version="1.1"
   id="svg2"
   xml:space="preserve"
   width="291.602209333"
   height="342.93292986"
   viewBox="0 0 356 418.66666"
   sodipodi:docname="MAU_EN_main_CMYK.eps"
   inkscape:version="0.92.3 (2405546, 2018-03-11)"><metadata
     id="metadata8"><rdf:RDF><cc:Work
         rdf:about=""><dc:format>image/svg+xml</dc:format><dc:type
           rdf:resource="http://purl.org/dc/dcmitype/StillImage" /><dc:title></dc:title></cc:Work></rdf:RDF></metadata><defs
     id="defs6" /><sodipodi:namedview
     pagecolor="#ffffff"
     bordercolor="#666666"
     borderopacity="1"
     objecttolerance="10"
     gridtolerance="10"
     guidetolerance="10"
     inkscape:pageopacity="0"
     inkscape:pageshadow="2"
     inkscape:window-width="706"
     inkscape:window-height="480"
     id="namedview4"
     showgrid="false"
     inkscape:zoom="0.56369428"
     inkscape:cx="178"
     inkscape:cy="209.33333"
     inkscape:window-x="0"
     inkscape:window-y="27"
     inkscape:window-maximized="0"
     inkscape:current-layer="g10" /><g
     id="g10"
     inkscape:groupmode="layer"
     inkscape:label="ink_ext_XXXXXX"
     transform="matrix(1.3333333,0,0,-1.3333333,0,418.66667)"><g
       id="g12"
       transform="scale(0.1)"><path
         d="m 536.684,722.582 h 76.132 L 673.18,563.59 737.086,722.582 h 76.937 L 859,425.121 H 781.672 L 759.965,596.34 H 759.18 L 687.781,425.121 H 657.012 L 588.766,596.34 h -0.801 l -24.86,-171.219 h -76.917 l 50.496,297.461"
         style="fill:#231f20;fill-opacity:1;fill-rule:nonzero;stroke:none"
         id="path14"
         inkscape:connector-curvature="0" /><path
         d="m 1049.17,630.648 h -0.79 l -31.96,-94.668 h 64.32 z M 995.129,476.789 974.613,425.121 h -82.062 l 114.419,297.461 h 84.41 l 112.03,-297.461 h -82.43 l -19.34,51.668 H 995.129"
         style="fill:#231f20;fill-opacity:1;fill-rule:nonzero;stroke:none"
         id="path16"
         inkscape:connector-curvature="0" /><path
         d="m 1316.66,490.609 h 92.7 v -65.488 h -170.03 v 297.461 h 77.33 V 490.609"
         style="fill:#231f20;fill-opacity:1;fill-rule:nonzero;stroke:none"
         id="path18"
         inkscape:connector-curvature="0" /><path
         d="m 1510.78,722.582 h 76.13 l 60.37,-158.992 63.9,158.992 h 76.94 l 44.98,-297.461 h -77.33 l -21.71,171.219 h -0.78 l -71.4,-171.219 h -30.77 l -68.25,171.219 h -0.8 L 1537.2,425.121 h -76.92 l 50.5,297.461"
         style="fill:#231f20;fill-opacity:1;fill-rule:nonzero;stroke:none"
         id="path20"
         inkscape:connector-curvature="0" /><path
         d="m 2108.87,785.309 c 0,-21.707 -17.36,-38.668 -38.67,-38.668 -21.69,0 -39.05,16.961 -39.05,38.668 0,21.3 17.36,38.652 39.05,38.652 21.31,0 38.67,-17.352 38.67,-38.652 z M 1935.28,578.98 c 0,-51.281 37.87,-88.761 84.03,-88.761 46.15,0 84.04,37.48 84.04,88.761 0,41.032 -37.89,78.508 -84.04,78.508 -46.16,0 -84.03,-37.476 -84.03,-78.508 z m 72.6,206.329 c 0,-21.707 -17.36,-38.668 -38.68,-38.668 -21.69,0 -39.04,16.961 -39.04,38.668 0,21.3 17.35,38.652 39.04,38.652 21.32,0 38.68,-17.352 38.68,-38.652 z m 175.93,-205.938 c 0,-96.25 -69.03,-164.109 -164.5,-164.109 -95.48,0 -164.51,67.859 -164.51,164.109 0,89.961 78.9,153.078 164.51,153.078 85.61,0 164.5,-63.117 164.5,-153.078"
         style="fill:#231f20;fill-opacity:1;fill-rule:nonzero;stroke:none"
         id="path22"
         inkscape:connector-curvature="0" /><path
         d="m 2033.04,13.2813 h -77.33 V 310.75 h 77.33 V 13.2813"
         style="fill:#231f20;fill-opacity:1;fill-rule:nonzero;stroke:none"
         id="path24"
         inkscape:connector-curvature="0" /><path
         d="M 2216.62,13.2813 H 2139.3 V 245.262 h -63.91 v 65.488 h 205.14 v -65.488 h -63.91 V 13.2813"
         style="fill:#231f20;fill-opacity:1;fill-rule:nonzero;stroke:none"
         id="path26"
         inkscape:connector-curvature="0" /><path
         d="m 2295.56,310.75 h 92.71 l 55.63,-80.879 55.62,80.879 h 92.71 L 2482.56,156.102 V 13.2813 h -77.33 V 156.102 L 2295.56,310.75"
         style="fill:#231f20;fill-opacity:1;fill-rule:nonzero;stroke:none"
         id="path28"
         inkscape:connector-curvature="0" /><path
         d="M 337.352,310.738 V 143.48 c 0,-38.289 -1.559,-76.1597 -31.157,-104.9487 C 281.34,14.0586 242.297,5.39063 207.574,5.39063 c -34.722,0 -73.769,8.66797 -98.629,33.14067 C 79.3516,67.3203 77.7695,105.191 77.7695,143.48 V 310.738 H 155.098 V 154.121 c 0,-38.672 2.757,-80.871 52.476,-80.871 49.692,0 52.469,42.199 52.469,80.871 v 156.617 h 77.309"
         style="fill:#231f20;fill-opacity:1;fill-rule:nonzero;stroke:none"
         id="path30"
         inkscape:connector-curvature="0" /><path
         d="m 390.238,310.738 h 77.328 L 609.195,128.871 h 0.785 v 181.867 h 77.329 V 13.2813 H 609.98 L 468.355,195.539 h -0.789 V 13.2813 H 390.238 V 310.738"
         style="fill:#231f20;fill-opacity:1;fill-rule:nonzero;stroke:none"
         id="path32"
         inkscape:connector-curvature="0" /><path
         d="M 817.523,13.2813 H 740.195 V 310.738 h 77.328 V 13.2813"
         style="fill:#231f20;fill-opacity:1;fill-rule:nonzero;stroke:none"
         id="path34"
         inkscape:connector-curvature="0" /><path
         d="m 1004.5,130.051 72.2,180.687 h 84.02 L 1033.7,13.2813 H 973.73 L 848.684,310.738 h 84.019 L 1004.5,130.051"
         style="fill:#231f20;fill-opacity:1;fill-rule:nonzero;stroke:none"
         id="path36"
         inkscape:connector-curvature="0" /><path
         d="m 1269.25,245.25 v -49.711 h 87.18 v -65.488 h -87.18 V 78.7695 h 91.92 V 13.2813 H 1191.92 V 310.738 h 169.25 V 245.25 h -91.92"
         style="fill:#231f20;fill-opacity:1;fill-rule:nonzero;stroke:none"
         id="path38"
         inkscape:connector-curvature="0" /><path
         d="m 1498.08,177.391 h 7.49 c 25.25,0 53.65,4.738 53.65,37.089 0,32.34 -28.4,37.071 -53.65,37.071 h -7.49 z M 1668.1,13.2813 h -96.26 L 1498.86,127.68 h -0.78 V 13.2813 h -77.34 V 310.738 h 115.6 c 58.77,0 103.36,-28.008 103.36,-91.519 0,-41.039 -22.88,-76.547 -65.1,-84.039 l 93.5,-121.8987"
         style="fill:#231f20;fill-opacity:1;fill-rule:nonzero;stroke:none"
         id="path40"
         inkscape:connector-curvature="0" /><path
         d="m 1864.17,234.211 c -14.2,11.828 -32.35,19.711 -51.29,19.711 -14.19,0 -33.14,-8.281 -33.14,-24.863 0,-17.34 20.92,-24.047 34.33,-28.399 l 19.73,-5.898 c 41.41,-12.242 73.37,-33.141 73.37,-81.274 0,-29.5896 -7.1,-59.9685 -30.76,-80.0896 -23.29,-19.7265 -54.45,-28.00777 -84.44,-28.00777 -37.48,0 -74.16,12.62887 -104.53,33.91797 l 33.13,62.3394 c 19.32,-16.9683 42.22,-30.7691 68.64,-30.7691 18.15,0 37.48,9.0625 37.48,29.9801 0,21.692 -30.37,29.192 -46.95,33.93 -48.52,13.813 -80.48,26.441 -80.48,84.02 0,60.363 43,99.82 102.58,99.82 29.98,0 66.66,-9.469 93.1,-24.469 l -30.77,-59.949"
         style="fill:#231f20;fill-opacity:1;fill-rule:nonzero;stroke:none"
         id="path42"
         inkscape:connector-curvature="0" /><path
         d="m 484.605,1230.09 v 1444 L 1901.93,3134.61 2185.4,2913.14 768.07,2452.63 V 1008.62 l -283.465,221.47"
         style="fill:#ed1639;fill-opacity:1;fill-rule:nonzero;stroke:none"
         id="path44"
         inkscape:connector-curvature="0" /><path
         d="M 1335,2323.26 V 1192.83 l -283.47,221.47 v 816.86 l 283.47,92.1"
         style="fill:#ed1639;fill-opacity:1;fill-rule:nonzero;stroke:none"
         id="path46"
         inkscape:connector-curvature="0" /><path
         d="m 1618.47,2415.37 283.46,92.09 V 1377.04 l -283.46,221.47 v 816.86"
         style="fill:#ed1639;fill-opacity:1;fill-rule:nonzero;stroke:none"
         id="path48"
         inkscape:connector-curvature="0" /></g></g></svg>