<svg width="202" height="159" viewBox="0 0 202 159" fill="none" xmlns="http://www.w3.org/2000/svg">
<path d="M121.049 0.734638C154.332 -2.29206 170.314 30.793 183.672 49.9997C197.031 69.203 210.393 82.565 192.024 109.285C173.655 136.006 144.428 127.654 124.39 137.675C104.349 147.695 60.094 148.53 40.8907 121.809C21.6874 95.089 10.8323 71.7099 41.7252 54.1756C72.6181 36.6412 62.6009 29.962 63.4353 16.6C64.2698 3.23807 102.68 2.4036 121.049 0.734638Z" fill="white"/>
<path d="M157.284 62.1612C157.181 62.1612 157.078 62.1475 156.976 62.1202C156.336 61.9492 155.957 61.2925 156.128 60.6564C161.709 39.7055 149.206 18.1219 128.258 12.5404C111.185 7.99185 93.056 15.4611 84.1708 30.7075C83.8391 31.2786 83.1038 31.4736 82.5326 31.1384C81.9615 30.8067 81.77 30.0714 82.1017 29.5002C91.5306 13.327 110.765 5.39949 128.874 10.2251C151.1 16.1451 164.363 39.0455 158.443 61.2686C158.296 61.8056 157.814 62.1612 157.284 62.1612Z" fill="#222151"/>
<path d="M147.472 64.0525C147.352 64.0525 147.232 64.0354 147.113 63.9978C146.483 63.7995 146.131 63.1291 146.329 62.4964C151.353 46.4669 142.4 29.3361 126.37 24.3121C111.599 19.6849 95.7236 26.8395 89.4376 40.9573C89.1674 41.5626 88.4629 41.8328 87.8576 41.5626C87.2522 41.2924 86.982 40.5879 87.2522 39.9826C94.0307 24.7499 111.155 17.0309 127.088 22.0276C144.377 27.4483 154.035 45.9231 148.614 63.2112C148.453 63.7242 147.981 64.0525 147.472 64.0525Z" fill="#222151"/>
<path d="M136.1 67.1921C135.919 67.1921 135.734 67.151 135.563 67.0621C134.971 66.7646 134.735 66.0464 135.033 65.4547C140.238 55.1332 136.076 42.5031 125.755 37.2979C120.755 34.7773 115.074 34.3533 109.756 36.1043C104.438 37.8553 100.122 41.5763 97.5977 46.5763C97.3002 47.168 96.582 47.404 95.9903 47.1064C95.3987 46.8089 95.1627 46.0907 95.4602 45.499C98.268 39.9279 103.08 35.7862 109.003 33.8334C114.93 31.8806 121.261 32.3526 126.832 35.1604C138.33 40.9607 142.967 55.034 137.171 66.532C136.958 66.9493 136.538 67.1921 136.1 67.1921Z" fill="#222151"/>
<path d="M119.455 77.011H118.494C118.152 77.011 117.871 76.7305 117.871 76.3885V49.1208C117.871 48.7788 118.152 48.4984 118.494 48.4984H119.455C119.797 48.4984 120.077 48.7788 120.077 49.1208V76.3885C120.077 76.7305 119.797 77.011 119.455 77.011Z" fill="#222151"/>
<path d="M72.1153 92.9139C72.1153 92.9139 62.0468 80.749 60.8772 79.7298C59.7075 78.7106 60.0085 73.2763 60.0085 73.2763L55.5933 73.7653C55.5933 73.7653 42.9085 49.8322 43.0214 49.2644C43.1342 48.6967 48.0043 42.0175 48.0043 42.0175C48.0043 42.0175 42.4536 40.3177 41.7765 39.791C41.0959 39.2609 39.7758 28.2007 40.6445 20.9161C41.5131 13.6315 44.1568 10.232 43.2129 7.09926C42.269 3.96654 50.5351 22.5029 55.5557 25.8614C60.5762 29.2198 72.3923 42.7733 72.3923 42.7733L70.3164 48.2453L77.4881 45.7555C77.4881 45.7555 80.0976 49.6372 84.4683 61.3541C87.5326 69.5656 87.0299 74.9931 87.8986 79.487C88.7673 83.9809 89.4137 95.0548 89.4137 95.0548L72.1153 92.9139Z" fill="#62B26A"/>
<path d="M45.176 13.9701C45.176 13.9701 55.4428 50.9642 60.8054 59.4971C66.1645 68.03 87.9089 94.7573 87.9089 94.7573L90.5525 93.3244C90.5525 93.3244 67.8266 63.6524 63.5243 57.688C59.2219 51.7235 45.176 13.9701 45.176 13.9701Z" fill="#6BC483"/>
<path d="M70.973 109.132C67.0229 108.43 42.5631 111.296 31.8927 104.86C21.2223 98.4236 26.5199 88.3927 20.7401 86.9871C14.9603 85.5815 13.9001 84.0835 13.9001 84.0835L15.4938 79.2066C15.4938 79.2066 8.00398 77.264 7.3576 76.7237C2.97658 73.0745 -1.44548 65.1709 0.524443 58.8234C0.688603 58.2899 3.43486 61.3952 3.56482 60.7831C3.66058 60.3316 1.1503 56.1763 1.22896 55.6873C2.52856 47.6434 1.55728 35.3143 1.55728 35.3143C1.55728 35.3143 10.846 49.0114 14.1497 51.4225C17.4534 53.8336 17.5937 59.0491 17.5937 59.0491L19.8338 55.2358C19.8338 55.2358 21.6361 59.3638 27.8844 61.4329C34.1328 63.502 37.0808 65.4138 47.9325 67.2229C49.6596 67.5102 51.7013 74.8393 53.1172 75.2941C54.3005 75.6737 54.899 69.1621 55.9011 69.634C61.226 72.1409 64.1877 75.7456 67.1495 78.6013C71.3355 82.6334 83.0012 104.357 83.0012 104.357L70.973 109.132Z" fill="#6BC483"/>
<path d="M49.9195 92.4248C49.9195 92.4248 53.7602 100.472 41.1438 92.4179C28.5274 84.3638 31.7114 72.1202 21.4548 68.8918C11.1948 65.6633 6.24268 64.6749 5.53816 56.1762C4.83364 47.6775 3.07234 38.7616 3.07234 38.7616C3.07234 38.7616 9.54982 57.3356 13.4384 59.0764C17.3303 60.8172 25.4391 63.5053 30.8633 66.6619C36.2874 69.8186 48.6986 88.6867 48.6986 88.6867L49.9195 92.4248Z" fill="#62B26A"/>
<path d="M82.1393 90.5234C73.8219 88.5979 64.0202 86.0055 58.3635 85.3763C44.8374 83.8749 33.7463 92.3804 28.0315 102.288L39.981 114.299C39.981 114.299 67.1871 114.422 68.2883 114.053C69.393 113.684 84.8309 108.783 84.8309 108.783L82.1393 90.5234Z" fill="white"/>
<path d="M142.174 158.975C134.185 158.975 125.926 157.418 117.451 154.306C99.6292 147.76 90.7782 140.568 84.3144 135.318C77.7172 129.959 74.4067 127.268 66.8109 129.34C54.1671 132.788 36.8243 132.979 28.1478 126.676C24.5602 124.07 22.6416 120.585 22.4364 116.324C22.0773 108.81 26.4309 99.6513 33.5206 92.996C40.7402 86.2175 49.6151 83.0301 58.5105 84.0185C63.5995 84.5828 69.8136 86.0328 77.0093 87.7086C98.1381 92.6334 127.075 99.3777 157.246 90.6806C159.052 90.1608 160.693 89.6409 162.28 89.1382C171.456 86.238 177.516 84.3194 187.479 91.6245C192.848 95.5644 196.487 102.37 197.455 110.301C198.58 119.511 195.971 128.704 190.293 135.517C186.083 140.568 176.996 149.823 163.446 155.035C156.62 157.661 149.513 158.975 142.174 158.975ZM71.4176 125.917C77.0811 125.917 80.8773 129.002 86.0415 133.195C92.3548 138.325 101.004 145.349 118.395 151.738C156.278 165.654 179.828 143.803 188.197 133.766C193.392 127.531 195.779 119.101 194.743 110.636C193.864 103.451 190.629 97.3291 185.864 93.8339C177.02 87.3496 172.078 88.9125 163.108 91.7477C161.504 92.2538 159.845 92.7805 158.009 93.3106C127.153 102.206 97.8132 95.366 76.3937 90.3728C69.2835 88.7141 63.1412 87.2846 58.213 86.7374C50.1247 85.8413 42.0227 88.7689 35.3982 94.9898C28.9652 101.03 24.8577 109.549 25.1724 116.194C25.3331 119.586 26.8755 122.37 29.7586 124.463C37.6519 130.202 54.3723 129.901 66.0927 126.703C68.066 126.163 69.817 125.917 71.4176 125.917Z" fill="#F5AD45"/>
<path d="M144.66 107.141C144.992 106.632 142.543 98.3346 142.516 96.4297C142.489 94.5247 142.926 93.2628 140.7 91.1389C138.474 89.0151 132.619 81.0739 130.529 78.9398C128.439 76.8057 123.053 71.1388 117.776 69.9555C112.499 68.7721 108.925 66.7646 107.977 66.8467C107.03 66.9288 101.178 65.3863 99.7386 66.0567C98.2988 66.7236 92.5293 70.896 91.3254 72.7701C90.1216 74.6443 81.7631 83.5294 81.7323 84.7572C81.7015 85.985 82.4471 86.7374 81.8999 88.2832C81.3527 89.8291 80.6756 89.8872 79.3965 92.4454C78.1174 95.007 76.4416 96.1014 76.4279 99.1007C76.4142 102.097 75.077 103.981 77.2624 104.067C79.4478 104.152 82.9875 104.121 86.6982 106.119C90.4089 108.116 103.138 112.063 108.925 109.658C114.711 107.257 125.614 105.777 129.797 106.915C133.983 108.058 142.978 109.737 144.66 107.141Z" fill="#222151"/>
<path d="M137.786 108.489C137.752 108.082 137.205 94.4871 135.351 91.9221C133.497 89.3571 132.69 81.5287 132.69 81.5287C132.69 81.5287 142.461 92.2641 142.632 92.6609C142.803 93.0542 143.354 97.9106 143.354 97.9106L145.112 107.292C145.112 107.292 143.795 108.92 141.996 109.056C140.197 109.193 137.786 108.489 137.786 108.489Z" fill="#2D82B7"/>
</svg>
