<svg xmlns="http://www.w3.org/2000/svg" width="122.884" height="90.059" viewBox="0 0 122.884 90.059">
  <g id="wave" transform="translate(0.002 0.004)">
    <path id="Path_112" data-name="Path 112" d="M118.64,70.87a2.558,2.558,0,1,1,3.37,3.85c-15.57,13.62-23.47,8.45-31.53,3.18C63.11,60,61.13,105.16,29.6,84.54c-6.42-4.2-12.72-8.32-25.36,2.74A2.558,2.558,0,1,1,.87,83.43c15.57-13.62,23.47-8.45,31.53-3.18,27.37,17.9,29.35-27.26,60.87-6.64,6.43,4.2,12.73,8.32,25.37-2.74ZM4.24,19.18A2.558,2.558,0,1,1,.87,15.33C16.44,1.71,24.34,6.88,32.4,12.15c27.37,17.9,29.35-27.26,60.87-6.64,6.42,4.2,12.72,8.32,25.36-2.74A2.558,2.558,0,0,1,122,6.62C106.43,20.24,98.53,15.07,90.47,9.8,63.11-8.1,61.13,37.07,29.6,16.44c-6.42-4.2-12.72-8.32-25.36,2.74Zm0,22.7A2.558,2.558,0,0,1,.87,38.03c15.57-13.62,23.47-8.45,31.53-3.18,27.37,17.9,29.35-27.26,60.87-6.64,6.42,4.2,12.72,8.32,25.36-2.74A2.558,2.558,0,0,1,122,29.32c-15.57,13.62-23.47,8.45-31.53,3.18C63.11,14.6,61.13,59.77,29.6,39.14c-6.42-4.2-12.72-8.32-25.36,2.74Zm0,22.7A2.558,2.558,0,1,1,.87,60.73c15.57-13.62,23.47-8.45,31.53-3.18,27.37,17.9,29.35-27.26,60.87-6.64,6.42,4.2,12.72,8.32,25.36-2.74A2.558,2.558,0,0,1,122,52.02c-15.57,13.62-23.47,8.45-31.53,3.18C63.11,37.3,61.13,82.47,29.6,61.84c-6.42-4.2-12.72-8.32-25.36,2.74Z" fill="#30a9d9"/>
  </g>
</svg>
